%YAML 1.1
%TAG !u! tag:unity3d.com,2011:
--- !u!43 &4300000
Mesh:
  m_ObjectHideFlags: 0
  m_CorrespondingSourceObject: {fileID: 0}
  m_PrefabInstance: {fileID: 0}
  m_PrefabAsset: {fileID: 0}
  m_Name: leaf_2
  serializedVersion: 11
  m_SubMeshes:
  - serializedVersion: 2
    firstByte: 0
    indexCount: 12
    topology: 0
    baseVertex: 0
    firstVertex: 0
    vertexCount: 8
    localAABB:
      m_Center: {x: 7.7045636, y: 15.6955, z: 7.897301}
      m_Extent: {x: 9.311764, y: 13.452189, z: 11.579875}
  m_Shapes:
    vertices: []
    shapes: []
    channels: []
    fullWeights: []
  m_BindPose: []
  m_BoneNameHashes: 
  m_RootBoneNameHash: 0
  m_BonesAABB: []
  m_VariableBoneCountWeights:
    m_Data: 
  m_MeshCompression: 0
  m_IsReadable: 0
  m_KeepVertices: 1
  m_KeepIndices: 1
  m_IndexFormat: 0
  m_IndexBuffer: 000001000200000002000300040005000600040006000700
  m_VertexData:
    serializedVersion: 3
    m_VertexCount: 8
    m_Channels:
    - stream: 0
      offset: 0
      format: 0
      dimension: 3
    - stream: 0
      offset: 12
      format: 0
      dimension: 3
    - stream: 0
      offset: 24
      format: 0
      dimension: 4
    - stream: 0
      offset: 0
      format: 0
      dimension: 0
    - stream: 0
      offset: 40
      format: 0
      dimension: 2
    - stream: 0
      offset: 0
      format: 0
      dimension: 0
    - stream: 0
      offset: 0
      format: 0
      dimension: 0
    - stream: 0
      offset: 0
      format: 0
      dimension: 0
    - stream: 0
      offset: 0
      format: 0
      dimension: 0
    - stream: 0
      offset: 0
      format: 0
      dimension: 0
    - stream: 0
      offset: 0
      format: 0
      dimension: 0
    - stream: 0
      offset: 0
      format: 0
      dimension: 0
    - stream: 0
      offset: 0
      format: 0
      dimension: 0
    - stream: 0
      offset: 0
      format: 0
      dimension: 0
    m_DataSize: 384
    _typelessdata: a6d7304053a7af41d7e48141720768bf0aef433e2fddc0bedcf2d7be6c83ecbe6abb473f000080bf0000d4be0000000028431541782ee94184ec8240720768bf08ef433e31ddc0bedbf2d7be6f83ecbe69bb473f000080bf000080bf00000000766b1b4154a97a414baf6bc0720768bf0bef433e32ddc0bedbf2d7be6c83ecbe69bb473f000080bf000080bf0000163fdc7849400e9b07419b670741720768bf0def433e2eddc0bed9f2d7be6783ecbe6abb473f000080bf0000d4be0000163fb8b8cdbff6078841342e58411378b43e393f1f3e203d6cbff19161bf33d38dbe4338c4be000080bf0000163f00000000d4bf41411387aa4142d19b410f78b43e383f1f3e203d6cbff19161bf33d38dbe3e38c4be000080bf000000000000000070218841aec5d14067e996411478b43e393f1f3e203d6cbff19161bf33d38dbe4338c4be000080bf000000000000163fd42f53406a920f40805e4e411a78b43e393f1f3e203d6cbff19161bf33d38dbe4938c4be000080bf0000163f0000163f
  m_CompressedMesh:
    m_Vertices:
      m_NumItems: 0
      m_Range: 0
      m_Start: 0
      m_Data: 
      m_BitSize: 0
    m_UV:
      m_NumItems: 0
      m_Range: 0
      m_Start: 0
      m_Data: 
      m_BitSize: 0
    m_Normals:
      m_NumItems: 0
      m_Range: 0
      m_Start: 0
      m_Data: 
      m_BitSize: 0
    m_Tangents:
      m_NumItems: 0
      m_Range: 0
      m_Start: 0
      m_Data: 
      m_BitSize: 0
    m_Weights:
      m_NumItems: 0
      m_Data: 
      m_BitSize: 0
    m_NormalSigns:
      m_NumItems: 0
      m_Data: 
      m_BitSize: 0
    m_TangentSigns:
      m_NumItems: 0
      m_Data: 
      m_BitSize: 0
    m_FloatColors:
      m_NumItems: 0
      m_Range: 0
      m_Start: 0
      m_Data: 
      m_BitSize: 0
    m_BoneIndices:
      m_NumItems: 0
      m_Data: 
      m_BitSize: 0
    m_Triangles:
      m_NumItems: 0
      m_Data: 
      m_BitSize: 0
    m_UVInfo: 0
  m_LocalAABB:
    m_Center: {x: 7.7045636, y: 15.6955, z: 7.897301}
    m_Extent: {x: 9.311764, y: 13.452189, z: 11.579875}
  m_MeshUsageFlags: 0
  m_CookingOptions: 30
  m_BakedConvexCollisionMesh: 
  m_BakedTriangleCollisionMesh: 
  'm_MeshMetrics[0]': 705.83496
  'm_MeshMetrics[1]': 1
  m_MeshOptimizationFlags: -1
  m_StreamData:
    serializedVersion: 2
    offset: 0
    size: 0
    path: 
